<?xml version="1.0" encoding="iso-8859-1"?>
<!-- Generator: Adobe Illustrator 19.0.0, SVG Export Plug-In . SVG Version: 6.00 Build 0)  -->
<svg version="1.1" id="Layer_1" xmlns="http://www.w3.org/2000/svg" xmlns:xlink="http://www.w3.org/1999/xlink" x="0px" y="0px"
	 viewBox="0 0 512 512" style="enable-background:new 0 0 512 512;" xml:space="preserve">
<g>
	<g>
		<path d="M502.038,79.463H125.447c-5.245-15.561-19.967-26.802-37.274-26.802H39.332C17.644,52.661,0,70.306,0,91.995v357.383
			c0,5.503,4.459,9.962,9.962,9.962h492.077c5.503,0,9.962-4.459,9.962-9.962V89.424C512,83.923,507.541,79.463,502.038,79.463z
			 M127.506,99.386h364.571v15.3h-56.966c-5.503,0-9.962,4.459-9.962,9.962v65.321c0,4.685-1.91,9-5.381,12.153
			c-3.04,2.765-6.969,4.289-11.063,4.289c-4.092,0-8.021-1.522-11.064-4.29c-3.468-3.152-5.379-7.467-5.379-12.152l-0.004-35.766
			c0-5.501-4.46-9.96-9.962-9.96c-5.503,0-9.962,4.46-9.962,9.962v74.883c0,9.066-7.377,16.443-16.443,16.443
			s-16.443-7.377-16.443-16.443v-104.44c0-5.503-4.459-9.962-9.962-9.962H213.081c-5.503,0-9.962,4.459-9.962,9.962v93.591
			c0,8.667-7.051,15.718-15.718,15.718c-8.665,0-15.717-7.051-15.717-15.718v-93.591c0-5.503-4.459-9.962-9.962-9.962h-34.217
			V99.386z M319.526,134.609v59.771h-96.484v-59.771H319.526z M127.504,134.609h24.258v59.771h-24.258V134.609z M492.077,276.051
			H117.543c-5.503,0-9.962,4.459-9.962,9.962v83.677c0,5.503,4.459,9.962,9.962,9.962h374.534v59.764H19.923v0V91.995
			c0-10.703,8.708-19.409,19.409-19.409h48.84c10.703,0,19.409,8.708,19.409,19.409v32.653v0.001h-0.001v79.693
			c0,5.503,4.459,9.962,9.962,9.962h34.22v3.935c0,19.652,15.989,35.641,35.641,35.641c19.652,0,35.64-15.989,35.64-35.641v-3.935
			h96.484v14.783c0,20.053,16.313,36.366,36.366,36.366s36.366-16.313,36.366-36.366V222.4c5.056,2.57,10.676,3.934,16.447,3.934
			c9.061,0,17.75-3.363,24.464-9.469c0.895-0.813,1.741-1.671,2.544-2.562h56.363V276.051z M492.077,295.975v63.754H127.504v-63.754
			H492.077z M492.078,194.38h-47.287c0.179-1.457,0.282-2.929,0.282-4.411v-55.36h47.005V194.38z"/>
	</g>
</g>
<g>
	<g>
		<circle cx="448.856" cy="241.03" r="9.962"/>
	</g>
</g>
<g>
	<g>
		<circle cx="40.125" cy="122.527" r="9.962"/>
	</g>
</g>
<g>
	<g>
		<circle cx="74.078" cy="144.43" r="9.962"/>
	</g>
</g>
<g>
	<g>
		<circle cx="38.85" cy="238.573" r="9.962"/>
	</g>
</g>
<g>
	<g>
		<circle cx="70.339" cy="331.986" r="9.962"/>
	</g>
</g>
<g>
	<g>
		<circle cx="83.493" cy="404.998" r="9.962"/>
	</g>
</g>
<g>
	<g>
		<circle cx="233.526" cy="421.826" r="9.962"/>
	</g>
</g>
<g>
	<g>
		<circle cx="340.713" cy="398.37" r="9.962"/>
	</g>
</g>
<g>
</g>
<g>
</g>
<g>
</g>
<g>
</g>
<g>
</g>
<g>
</g>
<g>
</g>
<g>
</g>
<g>
</g>
<g>
</g>
<g>
</g>
<g>
</g>
<g>
</g>
<g>
</g>
<g>
</g>
</svg>
