<?xml version="1.0" encoding="iso-8859-1"?>
<!-- Generator: Adobe Illustrator 19.0.0, SVG Export Plug-In . SVG Version: 6.00 Build 0)  -->
<svg version="1.1" id="Layer_1" xmlns="http://www.w3.org/2000/svg" xmlns:xlink="http://www.w3.org/1999/xlink" x="0px" y="0px"
	 viewBox="0 0 480 480" style="enable-background:new 0 0 480 480;" xml:space="preserve">
<g id="XMLID_1840_">
	<g>
		<g>
			<path d="M239.994,138.675c15.416,0,30.833-5.867,42.57-17.6c11.371-11.369,17.634-26.484,17.634-42.562
				c0-15.877-6.106-30.814-17.209-42.133L257.174,3.791c-2.833-3.575-7.724-4.78-11.894-2.932c-4.169,1.849-6.559,6.285-5.81,10.784
				c2.133,12.802-2.059,25.908-11.211,35.058c-9.282,9.281-22.561,13.444-35.524,11.134c-5.284-0.939-10.367,2.455-11.521,7.695
				c-4.444,20.19,1.615,40.955,16.209,55.544C209.161,132.808,224.577,138.675,239.994,138.675z M199.807,78.461
				c15.839,0,31.216-6.242,42.593-17.615c6.981-6.979,12.034-15.49,14.893-24.694c0,0,10.858,13.67,11.13,13.942
				c7.593,7.591,11.775,17.684,11.775,28.418c0,10.735-4.182,20.828-11.775,28.419c-15.677,15.672-41.182,15.67-56.857,0
				c-7.667-7.665-11.805-17.887-11.773-28.47C199.798,78.461,199.804,78.461,199.807,78.461z"/>
			<path d="M379.583,169.059c-5.677-6.484-13.757-10.204-22.167-10.204H122.584c-8.41,0-16.49,3.719-22.167,10.204
				c-6.093,6.959-8.872,16.316-7.624,25.67l34.425,258.124C129.281,468.33,142.089,480,157.009,480h165.982
				c14.92,0,27.728-11.67,29.791-27.146l34.425-258.124C388.455,185.376,385.676,176.019,379.583,169.059z M250,178.856h60.326
				v69.801c0,2.868-1.192,5.679-3.272,7.711c-1.948,1.906-4.419,2.91-7.043,2.866c-3.33-0.075-6.407-1.806-8.232-4.631
				c-2.185-3.384-5.877-5.405-9.879-5.405c-6.473,0-11.738,5.265-11.738,11.737v28.377c0,2.758-1.094,5.333-3.08,7.25
				c-1.985,1.917-4.622,2.92-7.378,2.819c-5.351-0.19-9.704-4.923-9.704-10.551V178.856z M118.898,239.179l-6.28-47.094
				c-0.485-3.64,0.553-7.231,2.848-9.853c1.104-1.261,3.498-3.377,7.119-3.377H230v60.305H119.512
				C119.306,239.161,119.101,239.167,118.898,239.179z M332.958,450.21c-0.744,5.581-5.029,9.79-9.967,9.79H157.009
				c-4.938,0-9.223-4.209-9.967-9.79l-25.48-191.049H230v29.671c0,16.546,12.735,29.96,28.993,30.538
				c8.242,0.293,16.051-2.695,21.978-8.415c5.927-5.72,9.191-13.406,9.191-21.642v-11.816c2.982,1.063,6.15,1.66,9.401,1.732
				c8.04,0.171,15.645-2.862,21.474-8.562c3.422-3.346,5.998-7.448,7.559-11.906l29.844,0.375L332.958,450.21z M367.383,192.086
				l-6.281,47.094c-0.161-0.01-0.324-0.016-0.488-0.018l-30.287-0.38v-59.926h27.09c3.621,0,6.015,2.116,7.119,3.377
				C366.83,184.855,367.868,188.446,367.383,192.086z"/>
		</g>
	</g>
</g>
<g>
</g>
<g>
</g>
<g>
</g>
<g>
</g>
<g>
</g>
<g>
</g>
<g>
</g>
<g>
</g>
<g>
</g>
<g>
</g>
<g>
</g>
<g>
</g>
<g>
</g>
<g>
</g>
<g>
</g>
</svg>
